<svg xmlns="http://www.w3.org/2000/svg" xmlns:xlink="http://www.w3.org/1999/xlink" data-name="Layer 1" preserveAspectRatio="xMidYMid meet" version="1.0" viewBox="-0.0 -0.3 481.5 319.3" zoomAndPan="magnify" style="fill: rgb(196, 61, 2);" original_string_length="6770" width="180.6764917507834px" height="119.90348998006536px"><g id="__id1_seznk09h9"><path d="m280.9,43.88c.89-.13,1.56.36,1.48,1.26-.35,4.08,2.57,3.6,5.12,3.87,13.01,1.37,26.32.42,39.2,5.29.07-2.15-1.35-2.96-2.4-3.79-4.15-3.28-8.37-6.47-12.6-9.64-2.37-1.77-4.62-1.92-6.81.49-2.03,2.24-4.7,2.54-7.53,1.91-4.28-.94-8.56-1.76-12.66-3.47-3.16-1.32-6.41-2.92-10.03-1.51-.27-4.48,2.73-3.73,5.11-2.82,5.1,1.95,10.33,3.4,15.61,4.69,1.44.35,2.99.55,4.46.45,1.66-.11,2.75-1.31,3.11-2.89.33-1.42-.82-2.14-1.86-2.8-.25-.16-.56-.25-.78-.45-5.43-4.86-10.75-5.64-18.32-3.39-20.12,5.99-37.4-.95-49.99-18.1-4.02-5.48-8.13-7.08-13.84-5.37.04.27-.01.63.14.82,1.02,1.19,4.37,1.16,2.8,3.55-1.11,1.69-2.91-.34-4.22-1.19-5.06-3.31-10.55-5.12-16.63-5.09-5.2.03-5.51.72-2.99,5.51,10.19,19.39,26.87,29.57,47.71,34.08,9.49,2.05,19.12,2.65,28.75,3.46,1.59.13,3.84.68,4.44-1.2.72-2.26-1.91-1.69-3.02-2.4-1.74-1.12-3.11-2.56-3.26-4.63-.13-1.78,1.47-2.03,2.83-2.29.99,3.05,1.76,6.32,6.18,5.65Z" style="fill: inherit;"/></g><g id="__id2_seznk09h9"><path d="m36.53,283.74c4.18,11.25,10.24,21.55,16.27,31.87,1.49,2.55,3.6,3.29,6.42,3.29,25.7-.06,51.41-.09,77.11.01,3.74.01,5.07-1.37,5.03-5.07-.17-13.61,0-27.22-.27-40.82-.08-3.82,1.12-5.36,4.85-4.96.45.05.91,0,1.36,0,7.09,0,7.11.03,7.09,6.98-.04,12.7.07,25.4-.15,38.1-.07,4.33,1.44,5.82,5.79,5.8,26.91-.14,53.83-.14,80.74,0,4.32.02,5.56-1.48,5.88-5.76,2.9-39.01,16.08-73.52,44.68-101.27,8.18-7.94,16.67-15.4,26.75-20.81,3.69-1.98,3.56-3.58.72-6.32-11.75-11.34-23.37-22.8-34.96-34.3-2.53-2.51-5.68-4.93-4.73-9.2.84-3.79,3.01-6.43,6.94-7.61,3.93-1.18,6.71.21,9.11,3.21,8.02,10.04,16.08,20.06,25.6,28.77,16.42,15.01,34.35,27.76,56.87,31.06,28.18,4.14,54.36-2.54,76.74-20.13,21.35-16.79,27.11-39.8,22.12-65.95-1.84-9.67-4.3-19.18-7.51-28.48-5.56-16.1-16.66-28.24-29.11-39.21-4.5-3.96-9.66-3.57-14.63.02-3.06,2.21-5.97,4.63-8.91,7.01-6.39,5.15-6.86,9.68-1.3,15.65,7.31,7.85,13.41,16.38,16.31,26.86,2.96,10.69,2.42,20.78-6.1,28.98-9.13,8.79-24.48,10.07-35.18,3.41-8.45-5.26-15.56-11.95-21.85-19.58-7.22-8.74-14.06-17.75-20.37-27.2-9.76-14.61-23.91-22.15-41.34-23.66-16.56-1.43-33.24-.58-49.77-2.66-26.55-3.34-48.98-13.86-64.22-36.9-1.08-1.64-2.43-3.24-2.98-5.06-1.54-5.11-4.83-6.27-9.91-6.28-21.01-.03-41.95-1.86-62.89-3.38-6.87-.5-7.38-.07-7.59,6.89-.73,24.29.39,48.36,8.08,71.7,17.77,53.99,52.11,92.24,106.07,111.92,2.3.84,5.05,1.11,5.56,4.5,1.03,6.82-.44,8.8-7.29,7.91-7.17-.94-14.45-1.82-21.03-5.13-2.78-1.4-4.69.03-6.69,1.25-16.6,10.1-34.34,17.83-52.43,24.69-22.6,8.56-46,13.71-70.25,14.7-5.28.22-8.73-1.48-11.54-6.07-14.73-24.06-25.26-49.8-31.78-77.21-.34-1.44-.7-2.88-1.15-4.7-2.56,1.25-3.2,3.53-3.97,5.5-6.96,17.68-12.15,35.75-11.64,55.03.16,6.04-.1,12.1.15,18.14.28,6.61-1.72,12.42-4.91,18.09C3.12,253-.04,258.76,0,265.56c.04,6.31,3.01,10.38,8.48,11.92,2.55.72,4.96.6,6.53-1.67,1.51-2.18-.8-3.12-1.94-4.39-1.42-1.57-1.61-3.51-.37-5,7.41-8.9,8.17-19.13,6.37-29.96-.19-1.11-.32-2.42,1.02-4.06,4.25,17.91,10.25,34.66,16.45,51.34Z" style="fill: inherit;"/></g><g id="__id3_seznk09h9"><path d="m53.81,181.2c1.6,4.02,4.68,7,8.32,9.36,5.87,3.81,12.26,6.52,18.77,9.01,10.47,4,20.85,8.2,29.16,16.1,2.9,2.76,5.78.95,8.4-.2,2.77-1.21,1.31-3.69.7-5.57-3.51-10.72-.46-20.93,2.34-31.14,2.44-8.88,6.3-17.32,8.12-26.41.59-2.93.11-5.26-1.52-7.66-11.27-16.59-18.55-34.87-22.89-54.39-.44-1.97-.3-4.45-3.4-4.49-4.04-.05-5.69,2.44-3.76,6.18,4.84,9.41,6.49,19.3,5.61,29.85-.59,7.11-2.22,14.02-3.1,21.06-1.43,11.46-1.32,22.91.54,34.32.15.89.39,1.77.49,2.67.26,2.18.4,4.52-2.34,5.15-2.64.6-3.74-1.34-4.45-3.5-2.34-7.15-6.86-12.67-12.68-17.28-3.91-3.1-7.71-6.33-11.49-9.58-7.97-6.86-14.66-14.77-19.77-24.04-1.08-1.97-1.66-6.13-4.81-4.75-3,1.33-5.15,4.61-4.89,8.86,2.87,15.65,6.62,31.36,12.64,46.44Z" style="fill: inherit;"/></g><g id="__id4_seznk09h9"><path d="m92.74,95.84c-.86-1.77-1.47-4.37-4.49-3.16-2.77,1.11-5.65,1.79-5.31,6.09.7,8.86-3.29,14.99-11.13,18.3-3.84,1.62-7.64,1.54-11.46.04-2.34-.92-4.69-1.63-6.63.69-2,2.4-.49,4.6.69,6.67,5.5,9.62,11.73,18.66,20.62,25.59,5.12,3.99,10.07,8.2,15.1,12.31.69.56,1.37,1.35,2.36.98.9-.33.65-1.24.65-1.98-.08-12.9,1.98-25.56,4.13-38.21.35-2.07.29-4.21.34-4.98.11-8.74-1.63-15.72-4.85-22.33Z" style="fill: inherit;"/></g><g id="__id5_seznk09h9"><path d="m125,208.05c1.01,3.36,2.78,4.71,6.4,3.5,15.23-5.1,29.79-11.75,44.18-18.83,2.64-1.3,2.6-2.82.06-4.13-14.47-7.47-26.38-18.06-36.94-30.28-1.8-2.08-3.51-2.04-4.44.49-4.49,12.3-10.47,24.18-11.03,37.62-.05,3.99.64,7.83,1.78,11.63Z" style="fill: inherit;"/></g><g id="__id6_seznk09h9"><path d="m71.57,221.25c1.34,2.24,3.31,3.02,5.74,2.68,7.45-1.04,14.9-2.11,22.34-3.25,1.28-.2,2.99-.29,3.36-1.85.46-1.96-1.53-2.31-2.66-3.17-4.49-3.44-9.67-5.48-14.9-7.45-8.15-3.06-16.28-6.16-25.56-9.68,3.98,8.45,7.49,15.75,11.68,22.72Z" style="fill: inherit;"/></g><g id="__id7_seznk09h9"><path d="m280.28,25.1c.61-3.59-4.38-3.48-7.01-4.81-3.18-1.6-6.34-2.25-9.87-.27-2.59,1.45-5.17.83-6.87-2.18-2.13-3.77-11.99-7.81-16.14-6.64-2.95.83-.85,2.12,0,3.05,6.17,6.69,13.91,10.44,22.79,11.94,2.96.5,5.97.73,8.07.97,3.86-.24,8.58.6,9.03-2.06Z" style="fill: inherit;"/></g><g id="__id8_seznk09h9"><path d="m76.65,104.13c.1-1.02.34-2.2-.73-2.87-.92-.58-1.74.06-2.46.59-2.91,2.14-5.81,4.28-8.67,6.48-.82.63-1.78,1.43-1.31,2.62.53,1.33,1.87,1.32,3.08,1.34,4.67-.04,9.68-4.07,10.08-8.16Z" style="fill: inherit;"/></g><g id="__id9_seznk09h9"><path d="m237.07,81.1c.09,6.17,4.74,10.71,10.97,10.71,5.81,0,10.49-4.93,10.33-10.87-.17-5.91-5.3-10.97-11.11-10.94-5.57.03-10.27,5.16-10.19,11.1Z" style="fill: rgb(255, 255, 255);"/></g><g id="__id10_seznk09h9"><path d="m254.31,35.48c-6.4.05-12.32,2.05-18.38.89-2.22-.42-4.47-.78-6.6-1.47-3.7-1.2-4.51-4.12-3.92-7.59.23-1.35.81-2.63,2.34-3.06,1.5-.41,2.64.26,3.61,1.31.3.33.53.74.86,1.05,1.23,1.2,1.61,4.8,3.76,3.11,1.89-1.48-.44-3.9-2.01-5.16-2.12-1.7-4.25-4.38-7.48-2.66-2.18,1.16-4.59,2.41-4.33,5.69.32,4.11,1.11,8.03,5.57,9.44,5.32,1.68,10.82,2.88,16.45,2.02,3.45-.53,6.9-.6,10.36-.71,3.25-.1,6.35.02,8.2,3.43.57,1.06,1.71,2.04,2.93.76,1.05-1.11.36-2.33-.55-3.19-3.13-2.96-6.88-4.23-10.79-3.87Z" style="fill: rgb(255, 255, 255);"/></g><g id="__id11_seznk09h9"><path d="m151.92,180.96c-.33-1.72-.31-4.04-2.84-4.34-2.21-.26-2.69,1.7-2.89,3.34-.48,4.03-3.72,6.03-6.11,8.67-3.32,3.67-3.76,7.81-1.07,10.49,1.06,1.06,2.32,2.19,3.96,1.62,1.63-.57,1.46-2.21,1.3-3.5-.42-3.3.71-5.71,3.23-7.91,2.76-2.4,4.41-6.04,4.42-8.36Z" style="fill: rgb(255, 255, 255);"/></g><g id="__id12_seznk09h9"><path d="m85.27,219.58c2.99-.1,3.02-1.81,2.11-3.69-.92-1.89-2.81-2.64-4.74-3.16-2.32-.62-4.67-1.18-6.99-1.81-1.59-.44-3.41-1.36-4.29.79-.91,2.21.42,4.08,2.33,4.74,3.82,1.32,7.81,2.15,11.58,3.14Z" style="fill: rgb(255, 255, 255);"/></g><g id="__id13_seznk09h9"><path d="m97.75,195.4c.04,3.09,2.37,5.36,5.49,5.36,2.91,0,5.25-2.47,5.16-5.44-.08-2.95-2.65-5.48-5.55-5.47-2.78.01-5.14,2.58-5.1,5.55Z" style="fill: rgb(255, 255, 255);"/></g></svg>